<?xml version="1.0" encoding="UTF-8"?>

<svg width="100" height="100" version="1.1" viewBox="0 0 26.458 26.458" xmlns="http://www.w3.org/2000/svg">

    <g transform="translate(0 -270.54)">
        <path transform="matrix(.26458 0 0 .26458 0 270.54)"
              d="m42.906 17.055-31.736 30.123a4.2044 3.9905 0 0 0 0 5.6445l31.736 30.123v-11.287l-22.818-21.658 22.818-21.658v-11.287zm14.064 0v11.287l22.818 21.658-22.818 21.658v11.287l31.736-30.123a4.2044 3.9905 0 0 0 0-5.6445l-31.736-30.123zm-7.0332 21.982a10.963 10.963 0 0 0-10.963 10.963 10.963 10.963 0 0 0 10.963 10.963 10.963 10.963 0 0 0 10.963-10.963 10.963 10.963 0 0 0-10.963-10.963z"
              fill="#0064ca"
        />
    </g>
</svg>
