<?xml version="1.0" encoding="UTF-8"?>
<svg width="351" height="155" version="1.1" viewBox="0 0 77.787 34.396"
     xmlns="http://www.w3.org/2000/svg"
     >

    <g transform="translate(0 -262.6)">
        <path transform="matrix(.26458 0 0 .26458 0 262.6)"
              d="m43.801 0 10.23 9.7109v-9.7109h-10.23zm29.838 0v9.7109l10.23-9.7109h-10.23zm33.107 0-11.791 11.191a5.8616 5.5635 0 0 0 0 7.8672l44.248 41.996v-15.734l-31.814-30.195 15.936-15.125h-16.578zm40.186 0a15.284 15.284 0 0 0-13.211 15.125 15.284 15.284 0 0 0 15.285 15.285 15.284 15.284 0 0 0 15.283-15.285 15.284 15.284 0 0 0-13.205-15.125h-4.1523zm27.756 0 15.936 15.125-31.814 30.197v15.734l44.248-41.998a5.8616 5.5635 0 0 0 0-7.8672l-11.791-11.191h-16.578zm39.455 0 10.23 9.7109v-9.7109h-10.23zm29.838 0v9.7109l10.23-9.7109h-10.23zm33.107 0-11.791 11.191a5.8616 5.5635 0 0 0 0 7.8672l29.346 27.852v-15.734l-16.912-16.051 15.936-15.125h-16.578zm-223.06 17.994-44.246 41.998a5.8616 5.5635 0 0 0 0 7.8672l44.246 41.996v-15.734l-31.814-30.195 31.814-30.197v-15.734zm19.607 0v15.734l31.814 30.197-31.814 30.195v15.734l44.246-41.996a5.8616 5.5635 0 0 0 0-7.8672l-44.246-41.998zm150.73 0-44.246 41.998a5.8616 5.5635 0 0 0 0 7.8672l44.246 41.996v-15.734l-31.814-30.195 31.814-30.197v-15.734zm19.607 0v15.734l31.814 30.197-31.814 30.195v15.734l44.246-41.996a5.8616 5.5635 0 0 0 0-7.8672l-44.246-41.998zm-180.15 30.646a15.284 15.284 0 0 0-15.283 15.285 15.284 15.284 0 0 0 15.283 15.283 15.284 15.284 0 0 0 15.285-15.283 15.284 15.284 0 0 0-15.285-15.285zm170.34 0a15.284 15.284 0 0 0-15.283 15.285 15.284 15.284 0 0 0 15.283 15.283 15.284 15.284 0 0 0 15.285-15.283 15.284 15.284 0 0 0-15.285-15.285zm-94.973 20.699-44.248 41.996a5.8616 5.5635 0 0 0 0 7.8672l11.377 10.797h16.578l-15.521-14.73 31.814-30.197v-15.732zm19.605 0v15.734l31.814 30.195-15.52 14.73h16.576l11.377-10.797a5.8616 5.5635 0 0 0 0-7.8672l-44.248-41.996zm135.83 14.145-29.346 27.852a5.8616 5.5635 0 0 0 0 7.8672l11.377 10.797h16.578l-15.521-14.73 16.912-16.053v-15.732zm-145.64 16.502a15.284 15.284 0 0 0-15.285 15.283 15.284 15.284 0 0 0 11.213 14.73h8.084a15.284 15.284 0 0 0 11.271-14.73 15.284 15.284 0 0 0-15.283-15.283zm-94.975 18.152-12.498 11.861h12.498v-11.861zm19.607 0v11.861h12.496l-12.496-11.861zm150.73 0-12.498 11.861h12.498v-11.861zm19.607 0v11.861h12.498l-12.498-11.861z"
              fill="#36393E"/>
    </g>
</svg>
